<svg xmlns="http://www.w3.org/2000/svg" width="96.777" height="77.451" viewBox="0 0 96.777 77.451">
<g transform="translate(-1456.852 -1427.504)">
<g transform="translate(1456.852 1427.504)">
<g transform="translate(4.827 50.657)">
<rect width="53.048" height="3.535" fill="#ffe6a0"></rect>
</g>
<g transform="translate(4.419 36.383)">
<rect width="58.17" height="3.535" fill="#ffe6a0"></rect>
</g>
<path d="M1540.9,1447.762a5.522,5.522,0,0,0-5.507-5.506H1475.23a5.523,5.523,0,0,0-5.506,5.506v8.677h-.127v5.845h71.233v-5.14h.07Z" transform="translate(-1464.628 -1436.505)" fill="#ffe6a0"></path>
<g>
<path d="M1539.063,1452.909l12.68-23.76a1.119,1.119,0,1,0-1.974-1.054l-12.679,23.758a11.564,11.564,0,0,0-2.08-.648l8.869-16.62a1.119,1.119,0,0,0-1.974-1.053l-9.245,17.324a1.057,1.057,0,0,0-.041.1,11.555,11.555,0,0,0-2.3.239v-2.339a1.1,1.1,0,0,0-.056-.333c0-.025.007-.049.007-.075v-9.381a6.633,6.633,0,0,0-6.626-6.626h-60.163a6.633,6.633,0,0,0-6.625,6.626v9.381a1.113,1.113,0,0,0,.056.333c0,.025-.008.049-.008.075v43.034a1.119,1.119,0,0,0,1.119,1.119h51.54a36.872,36.872,0,0,0-1.222,7.949c0,1.871.583,3.091,1.778,3.727a2.355,2.355,0,0,0,1.122.269,5.437,5.437,0,0,0,2.7-.954c8.092-4.881,26.488-31.7,28.855-36.136A11.511,11.511,0,0,0,1539.063,1452.909Zm-16.55,4.131c-.451.846-1.251,2.609-2.248,4.973h-4.228v-11.73a1.124,1.124,0,0,0-.048-.308h12.087v1.93A11.481,11.481,0,0,0,1522.512,1457.041Zm-8.713,4.973H1501.76v-11.73a1.115,1.115,0,0,0-.048-.308h12.135a1.12,1.12,0,0,0-.048.308Zm-28.553,0h-12.038v-12.038h12.086a1.1,1.1,0,0,0-.048.308Zm-14.276,0h-11.831v-12.038h11.831Zm-11.831,2.238h11.831v7.961a1.119,1.119,0,0,0,2.238,0v-7.961h12.038v12.038h-26.108Zm26.108,14.276v12.245h-12.038v-12.245Zm2.237,0h12.039v12.245h-12.039Zm0-2.238v-12.038h4.505a1.119,1.119,0,0,0,0-2.238h-4.505v-11.73a1.12,1.12,0,0,0-.048-.308h12.135a1.1,1.1,0,0,0-.048.308v11.73h-1.268a1.119,1.119,0,0,0,0,2.238h1.268v12.038Zm14.277-12.038H1513.8v12.038H1501.76Zm14.277,8.471v-8.471h3.3C1518.328,1466.724,1517.189,1469.626,1516.037,1472.723Zm-56.947-33.655a4.393,4.393,0,0,1,4.387-4.388h60.163a4.393,4.393,0,0,1,4.388,4.388v8.263H1459.09Zm.048,39.46h11.831v12.245h-11.831Zm42.622,12.245v-12.245h12.187c-1.45,4.174-2.806,8.425-3.821,12.245Zm39.061-23.96c-.875,1.64-4.175,6.669-8.328,12.466l-5.275-2.816a1.119,1.119,0,1,0-1.054,1.974l5.007,2.673c-6.293,8.652-14.052,18.359-18.389,20.975-1.238.749-1.611.628-1.616.627h0c-.147-.079-.592-.317-.593-1.754a41.754,41.754,0,0,1,1.7-9.6l4.046,2.159a1.119,1.119,0,1,0,1.054-1.973l-4.486-2.4c2.13-7.4,5.336-16.1,7.893-22.494l5.793,3.092a1.119,1.119,0,1,0,1.053-1.974l-6-3.2c1.291-3.146,2.335-5.5,2.859-6.479a9.258,9.258,0,1,1,16.335,8.718Z" transform="translate(-1456.852 -1427.504)" fill="#5a5a5a"></path>
<path d="M1686.262,1443.056a1.119,1.119,0,0,0-1.514.46l-9.408,17.63a1.119,1.119,0,1,0,1.975,1.053l9.408-17.629A1.119,1.119,0,0,0,1686.262,1443.056Z" transform="translate(-1590.078 -1436.912)" fill="#5a5a5a"></path>
<path d="M1620.575,1559.092a1.119,1.119,0,0,0,.46,1.514l4.559,2.434a1.119,1.119,0,0,0,1.054-1.974l-4.56-2.434A1.118,1.118,0,0,0,1620.575,1559.092Z" transform="translate(-1556.664 -1507.428)" fill="#5a5a5a"></path>
<path d="M1654.464,1511.236a1.119,1.119,0,0,0,.46,1.514l4.56,2.433a1.119,1.119,0,1,0,1.053-1.974l-4.56-2.434A1.12,1.12,0,0,0,1654.464,1511.236Z" transform="translate(-1577.34 -1478.23)" fill="#5a5a5a"></path>
</g>
</g>
</g>
</svg>