<svg xmlns="http://www.w3.org/2000/svg" width="101.913" height="80.448" viewBox="0 0 101.913 80.448">
<g transform="translate(0)">
<g transform="translate(58.299 36.46)">
<path d="M335.218,1508.621a14.734,14.734,0,0,0-13.063,2.308c-4.41-3.89-10.7-3.207-13.064-2.308-8.912,3.383-10.305,10.2-7.328,19.434,8.653,26.818,17.214,23.215,20.392,20.873,1.853,1.367,11.049,8.082,20.39-20.873C345.524,1518.824,344.13,1512,335.218,1508.621Z" transform="translate(-300.348 -1507.924)" fill="#b2edb2"></path>
</g>
<g>
<path d="M194.478,1496.572h-5.252a3.492,3.492,0,0,0-3.488,3.488v5.252a3.493,3.493,0,0,0,3.488,3.488h5.252a3.492,3.492,0,0,0,3.489-3.488v-5.252A3.492,3.492,0,0,0,194.478,1496.572Zm.805,8.74a.816.816,0,0,1-.805.8h-5.252a.815.815,0,0,1-.8-.8v-5.252a.816.816,0,0,1,.8-.8h5.252a.816.816,0,0,1,.805.8Z" transform="translate(-175.856 -1464.907)" fill="#5a5a5a"></path>
<path d="M222.3,1457.039c5.2,0,9.424-3.965,9.424-8.838s-4.227-8.838-9.424-8.838H187.694c-5.2,0-9.423,3.964-9.423,8.838s4.227,8.838,9.423,8.838Zm-41.346-8.838c0-3.394,3.023-6.155,6.74-6.155H222.3c3.717,0,6.741,2.761,6.741,6.155s-3.024,6.155-6.741,6.155H187.694C183.977,1454.356,180.954,1451.594,180.954,1448.2Z" transform="translate(-171.543 -1431.866)" fill="#5a5a5a"></path>
<path d="M194.478,1532.513h-5.252a3.493,3.493,0,0,0-3.488,3.489v5.252a3.492,3.492,0,0,0,3.488,3.487h5.252a3.492,3.492,0,0,0,3.489-3.487V1536A3.493,3.493,0,0,0,194.478,1532.513Zm.805,8.74a.816.816,0,0,1-.805.8h-5.252a.816.816,0,0,1-.8-.8V1536a.815.815,0,0,1,.8-.8h5.252a.815.815,0,0,1,.805.8Z" transform="translate(-175.856 -1485.665)" fill="#5a5a5a"></path>
<path d="M230.8,1496.572h-5.252a3.492,3.492,0,0,0-3.488,3.488v5.252a3.492,3.492,0,0,0,3.488,3.488H230.8a3.492,3.492,0,0,0,3.488-3.488v-5.252A3.492,3.492,0,0,0,230.8,1496.572Zm.8,8.74a.815.815,0,0,1-.8.8h-5.252a.815.815,0,0,1-.805-.8v-5.252a.816.816,0,0,1,.805-.8H230.8a.816.816,0,0,1,.8.8Z" transform="translate(-196.833 -1464.907)" fill="#5a5a5a"></path>
<path d="M230.8,1532.513H225.55a3.493,3.493,0,0,0-3.489,3.489v5.252a3.492,3.492,0,0,0,3.489,3.487H230.8a3.491,3.491,0,0,0,3.488-3.487V1536A3.492,3.492,0,0,0,230.8,1532.513Zm.8,8.74a.815.815,0,0,1-.8.8H225.55a.815.815,0,0,1-.805-.8V1536a.815.815,0,0,1,.805-.8H230.8a.815.815,0,0,1,.8.8Z" transform="translate(-196.834 -1485.665)" fill="#5a5a5a"></path>
<path d="M200.471,1460.043a1.341,1.341,0,0,0-1.341-1.342h-2.683a1.342,1.342,0,0,0,0,2.683h2.683A1.341,1.341,0,0,0,200.471,1460.043Z" transform="translate(-181.266 -1443.035)" fill="#5a5a5a"></path>
<path d="M218.041,1461.384H244.96a1.342,1.342,0,1,0,0-2.683H218.041a1.342,1.342,0,1,0,0,2.683Z" transform="translate(-193.737 -1443.035)" fill="#5a5a5a"></path>
<path d="M251.225,1454.395a14.637,14.637,0,0,0-4.927-.76,18.346,18.346,0,0,0-6.12,1.046,16.012,16.012,0,0,0-.229-7.887,1.342,1.342,0,0,0-2.53.894c.874,2.476.372,5.84-.316,8.511-.118.077-.238.149-.355.231a14.375,14.375,0,0,0-5.981-2.567v-26.074a6.178,6.178,0,0,0-6.172-6.172H168.516a6.178,6.178,0,0,0-6.171,6.172v56.079a6.179,6.179,0,0,0,6.171,6.172h50.228c4.056,7.991,8.481,12.027,13.216,12.027a8.825,8.825,0,0,0,4.751-1.472,8.828,8.828,0,0,0,4.752,1.472h0c6.854,0,13.057-8.453,18.436-25.122C263.624,1465.4,260.787,1458.025,251.225,1454.395Zm-82.708,32.96a3.493,3.493,0,0,1-3.488-3.488v-56.079a3.492,3.492,0,0,1,3.488-3.488h56.078a3.492,3.492,0,0,1,3.489,3.488v25.782c-.213-.007-.422-.012-.623-.012a15.775,15.775,0,0,0-5.261.836c-.652.247-1.27.514-1.859.8a3.384,3.384,0,0,0-3.482-3.12h-6.082a3.492,3.492,0,0,0-3.488,3.489v22.18a3.492,3.492,0,0,0,3.488,3.488h4.216q1.21,3.329,2.473,6.127Zm45.009-10.412c.175.543.351,1.076.528,1.6h-3.277a.816.816,0,0,1-.8-.805v-22.18a.816.816,0,0,1,.8-.805h6.082c.461,0,.805.294.805.557v1.431C211.828,1460.838,210.476,1467.493,213.525,1476.943Zm43.822-.824c-2.8,8.688-8.594,23.263-15.882,23.263a6.681,6.681,0,0,1-3.956-1.5,1.343,1.343,0,0,0-1.593,0,6.678,6.678,0,0,1-3.955,1.5c-6.356,0-11.572-11.082-14.662-19.68a1.333,1.333,0,0,0-.183-.515c-.381-1.075-.728-2.109-1.038-3.068-3.286-10.185-1.1-16.111,7.074-19.216a13.042,13.042,0,0,1,4.309-.661,12.533,12.533,0,0,1,8.364,2.893,1.364,1.364,0,0,0,.312.2c-.251.7-.436,1.145-.468,1.222a5.188,5.188,0,0,1-1.443-.638,1.342,1.342,0,0,0-1.557,2.186,8.284,8.284,0,0,0,4.5,1.354,8.184,8.184,0,0,0,4.6-1.463,1.341,1.341,0,1,0-1.488-2.232,6,6,0,0,1-1.741.809c.24-.647.554-1.555.863-2.623a14.923,14.923,0,0,1,6.89-1.631,12.106,12.106,0,0,1,3.975.584C258.451,1460.007,260.633,1465.934,257.347,1476.119Z" transform="translate(-162.345 -1421.617)" fill="#5a5a5a"></path>
<path d="M297.8,1551.177a1.342,1.342,0,0,0-2.558.811,51.464,51.464,0,0,0,5.061,11.247,1.342,1.342,0,1,0,2.291-1.4A48.765,48.765,0,0,1,297.8,1551.177Z" transform="translate(-239.062 -1495.904)" fill="#5a5a5a"></path>
<path d="M293.551,1532.921c-.294-1.573-.387-2.527-.387-2.537a1.342,1.342,0,0,0-2.672.25c0,.044.1,1.074.422,2.78a1.342,1.342,0,0,0,2.637-.493Z" transform="translate(-236.353 -1483.733)" fill="#5a5a5a"></path>
</g>
</g>
</svg>