<!-- Icon1.svg -->
 
<svg xmlns="http://www.w3.org/2000/svg" width="89.831" height="81.293" viewBox="0 0 89.831 81.293">
<g transform="translate(0)">
<g transform="translate(3.125 1.041)">
<path d="M1107.793,1424.578h-44.9v-5.671h-28.47v13.232h76.152v-4.784A2.786,2.786,0,0,0,1107.793,1424.578Z" transform="translate(-1034.419 -1418.907)" fill="#b2edb2"></path>
</g>
<g>
<path d="M1043.978,1428.264a1.157,1.157,0,0,0-1.157-1.157h-2.314a1.157,1.157,0,1,0,0,2.315h2.314A1.157,1.157,0,0,0,1043.978,1428.264Z" transform="translate(-1034.415 -1423.057)" fill="#5a5a5a"></path>
<path d="M1061.952,1429.422h10.185a1.157,1.157,0,0,0,0-2.315h-10.185a1.157,1.157,0,0,0,0,2.315Z" transform="translate(-1047.991 -1423.057)" fill="#5a5a5a"></path>
<path d="M1044.483,1494.193a1.157,1.157,0,0,0,1.157,1.157,14.062,14.062,0,0,1,3.846.462,18.541,18.541,0,0,0,8.77,0,16.236,16.236,0,0,1,7.691,0,18.552,18.552,0,0,0,8.773,0,16.243,16.243,0,0,1,7.692,0,18.558,18.558,0,0,0,8.774,0,14.064,14.064,0,0,1,3.846-.462,1.157,1.157,0,1,0,0-2.314,16.222,16.222,0,0,0-4.387.526,16.231,16.231,0,0,1-7.693,0,18.57,18.57,0,0,0-8.773,0,16.226,16.226,0,0,1-7.692,0,18.554,18.554,0,0,0-8.771,0,16.223,16.223,0,0,1-7.69,0,16.215,16.215,0,0,0-4.386-.526A1.157,1.157,0,0,0,1044.483,1494.193Z" transform="translate(-1037.665 -1464.791)" fill="#5a5a5a"></path>
<path d="M1082.411,1528.931a15.744,15.744,0,0,0,3.421.507,1.157,1.157,0,1,0,.1-2.313,13.558,13.558,0,0,1-2.977-.445,18.571,18.571,0,0,0-8.773,0,16.23,16.23,0,0,1-7.692,0,18.556,18.556,0,0,0-8.771,0,16.232,16.232,0,0,1-7.689,0,16.2,16.2,0,0,0-4.386-.526,1.157,1.157,0,0,0,0,2.314,14.056,14.056,0,0,1,3.846.462,18.535,18.535,0,0,0,8.771,0,16.231,16.231,0,0,1,7.69,0,18.544,18.544,0,0,0,8.773,0,16.239,16.239,0,0,1,7.692,0Z" transform="translate(-1037.665 -1485.757)" fill="#5a5a5a"></path>
<path d="M1173.919,1526.154h0a16.1,16.1,0,0,0-3.92.416,1.157,1.157,0,1,0,.518,2.255,13.7,13.7,0,0,1,3.4-.357,1.157,1.157,0,0,0,0-2.314Z" transform="translate(-1116.552 -1485.757)" fill="#5a5a5a"></path>
<path d="M1113.96,1441.634a5.4,5.4,0,0,0-3.717-1.457,7.838,7.838,0,0,0-5.618,2.818c-.062.067-.149.166-.255.289v-17.609a3.94,3.94,0,0,0-3.935-3.935h-43.747v-4.513a1.157,1.157,0,0,0-1.157-1.157h-28.47a1.158,1.158,0,0,0-1.157,1.157v57.287a3.939,3.939,0,0,0,3.935,3.935h35.715c-3.96,5.19-3.845,12.207.465,16.182a10.577,10.577,0,0,0,7.212,2.732h0a13.666,13.666,0,0,0,9.937-4.551c3.742-4.058,4.763-9.636,2.768-13.978a1.139,1.139,0,0,0,.34.057h13.7a3.939,3.939,0,0,0,3.935-3.935v-14.71c5.671-5.45,8.839-8.532,9.451-9.2C1116.285,1447.877,1116.532,1444,1113.96,1441.634Zm-85.742,32.88v-56.13h26.155v4.513a1.157,1.157,0,0,0,1.158,1.157h44.9a1.622,1.622,0,0,1,1.62,1.62v20.206a1.182,1.182,0,0,0,.015.149c-3.678,4.451-11.127,13.6-22.264,27.338a11.094,11.094,0,0,0-3.427-.529,13.422,13.422,0,0,0-8.624,3.294h-37.916A1.622,1.622,0,0,1,1028.218,1474.514Zm73.377.442a1.622,1.622,0,0,1-1.62,1.621h-13.127q8.824-8.428,14.746-14.109Zm10.064-25.475c-.745.808-6.294,6.22-28.5,27.416a1.157,1.157,0,0,0-.136,1.519c2.628,3.6,1.973,9-1.558,12.827a11.35,11.35,0,0,1-8.235,3.805h0a8.159,8.159,0,0,1-5.643-2.119c-3.674-3.387-3.424-9.654.555-13.97a11.351,11.351,0,0,1,8.236-3.8,8.654,8.654,0,0,1,3.358.654,1.155,1.155,0,0,0,1.346-.338c19.507-24.07,24.5-30.092,25.245-30.905a5.59,5.59,0,0,1,3.916-2.072,3.12,3.12,0,0,1,2.148.843C1113.986,1444.806,1113.692,1447.276,1111.659,1449.48Z" transform="translate(-1025.903 -1416.069)" fill="#5a5a5a"></path>
<path d="M1148.632,1593.464a7.11,7.11,0,0,1-5.156,2.389,5,5,0,0,1-3.464-1.3,5.126,5.126,0,0,1-1.593-3.835,7.283,7.283,0,0,1,1.983-4.845,7.135,7.135,0,0,1,5.095-2.388,1.158,1.158,0,0,0-.025-2.315,9.783,9.783,0,0,0-9.368,9.548,7.246,7.246,0,0,0,7.372,7.447,9.428,9.428,0,0,0,6.858-3.135,1.157,1.157,0,0,0-1.7-1.569Z" transform="translate(-1095.665 -1520.585)" fill="#5a5a5a"></path>
<path d="M1249.136,1491.551a2.488,2.488,0,1,0,1.686.658A2.5,2.5,0,0,0,1249.136,1491.551Zm.127,2.605a.155.155,0,0,1-.246.01.171.171,0,0,1-.055-.128.167.167,0,0,1,.046-.117.171.171,0,0,1,.128-.056.167.167,0,0,1,.117.046.174.174,0,0,1,.01.245Z" transform="translate(-1165.641 -1463.852)" fill="#5a5a5a"></path>
</g>
</g>
</svg>