<svg xmlns="http://www.w3.org/2000/svg" width="96.193" height="81.294" viewBox="0 0 96.193 81.294">
<g transform="translate(0)">
<g transform="translate(0)">
<g transform="translate(26.135 11.312)">
<g transform="translate(4.164 2.955)">
<path d="M709.706,1468.088a20.108,20.108,0,0,0-32.566,0l10.694,9.212H699.01Z" transform="translate(-677.14 -1459.778)" fill="#ffe6a0"></path>
</g>
<g transform="translate(16.352 4.349)">
<path d="M704.846,1478.663a1.343,1.343,0,0,1-1.3-1.677l3.379-13.185a1.343,1.343,0,0,1,2.6.667l-3.379,13.185A1.343,1.343,0,0,1,704.846,1478.663Z" transform="translate(-703.501 -1462.792)" fill="#5a5a5a"></path>
</g>
<g>
<path d="M691.347,1473.595H680.173a1.344,1.344,0,0,1-.877-.325l-10.7-9.212a1.342,1.342,0,0,1-.21-1.807,21.45,21.45,0,0,1,34.739,0,1.342,1.342,0,0,1-.21,1.807l-10.7,9.211A1.343,1.343,0,0,1,691.347,1473.595Zm-10.675-2.686h10.177l9.351-8.052a18.76,18.76,0,0,0-28.878,0Z" transform="translate(-668.134 -1453.387)" fill="#5a5a5a"></path>
</g>
</g>
<g transform="translate(67.702 45.009)">
<g transform="translate(0 9.708)">
<path d="M782.439,1551.9c-3.923,3.786-12.868,6.814-24.4,8.351v9.219c15.222-2.149,26.682-7.01,26.682-12.663v-9.541S782.491,1551.957,782.439,1551.9Z" transform="translate(-758.036 -1547.265)" fill="#ffe6a0"></path>
</g>
<g transform="translate(13.426)">
<path d="M798.475,1540.177l1.745-3.95c-.044-3.868-4.95-7.456-13-9.96l-.141,8.681c4.76,1.479,8.877,3.387,10.977,5.662C798.2,1540.468,798.342,1540.323,798.475,1540.177Z" transform="translate(-787.075 -1526.268)" fill="#ffe6a0"></path>
</g>
</g>
<g transform="translate(0.411 18.136)">
<path d="M612.5,1476.61v9.541c0,7.645,19.426,13.842,43.388,13.842a148.857,148.857,0,0,0,15.493-.776c11.956-1.26,21.472-4,25.712-7.834v-10.218c-4.093,3.948-13.6,7.109-25.722,8.587a128.666,128.666,0,0,1-15.483.907c-23.962,0-43.388-6.2-43.388-13.842,0-3.888,1.76-6.438,8.871-8.671l.032,8.51c-3.581.626-5.551,1.88-6.509,4.427Z" transform="translate(-612.498 -1468.146)" fill="#ffe6a0"></path>
</g>
<path d="M707.8,1486.765v-.1a1.349,1.349,0,0,0-.012-.18c-.279-4.176-5.079-7.944-13.6-10.668v-5.239a18.794,18.794,0,0,0,4.252-2.781,1.343,1.343,0,1,0-1.8-1.993,14.233,14.233,0,0,1-2.451,1.732,25.268,25.268,0,0,1-2.686,1.322c-4.747,2.019-11.6,3.575-19.813,4.44a147.284,147.284,0,0,1-15.353.769c-11.455,0-22.207-1.417-30.273-3.991-7.372-2.352-11.773-5.533-11.773-8.508v-3.91c2.269,2.14,5.95,4.046,10.956,5.643,1.206.385,2.476.742,3.79,1.075a1.234,1.234,0,0,0-.014.138v2.559a1.343,1.343,0,1,0,2.685,0v-2.067a113.759,113.759,0,0,0,20.163,2.34v2.02a1.343,1.343,0,0,0,2.686,0v-1.962c.591.007,1.183.013,1.778.013a129.911,129.911,0,0,0,15.644-.917q2.843-.347,5.48-.811v1.96a1.343,1.343,0,1,0,2.686,0v-2.472a61.317,61.317,0,0,0,11.355-3.374q1.442-.61,2.686-1.272a19.042,19.042,0,0,0,4.284-2.985,1.343,1.343,0,0,0-1.866-1.933,14.311,14.311,0,0,1-2.419,1.828v-22.612a5.919,5.919,0,0,0-5.912-5.912h-63a5.919,5.919,0,0,0-5.912,5.912v8.651c-6.124,3-7.635,6.192-7.75,8.462,0,.028-.008.054-.008.083v9.541c0,3.3,2.659,6.276,7.758,8.761v13.3a1.343,1.343,0,0,0,2.687,0v-12.126q1.5.589,3.2,1.133c8.324,2.655,19.365,4.117,31.09,4.117a150,150,0,0,0,15.634-.784,77.807,77.807,0,0,0,19.532-4.211v24.01a1.337,1.337,0,0,0,.015.149,85.351,85.351,0,0,1-11.923,2.4,1.343,1.343,0,0,0-1.166,1.332v1.407H625.279a3.229,3.229,0,0,1-3.225-3.225V1491.7a1.343,1.343,0,1,0-2.687,0v6.136a5.919,5.919,0,0,0,5.912,5.912h53.154v5.126a1.344,1.344,0,0,0,1.343,1.343,1.361,1.361,0,0,0,.188-.013c13.459-1.9,27.84-6.575,27.837-13.994v-9.223c0-.037,0-.075,0-.112S707.8,1486.8,707.8,1486.765Zm-90.512-30.141a18.312,18.312,0,0,1,2.078-1.349v2.673A19.115,19.115,0,0,1,617.289,1456.623Zm4.765-21.789a3.229,3.229,0,0,1,3.225-3.226h63a3.229,3.229,0,0,1,3.226,3.226v24.039c-4.8,2.214-11.742,3.978-19.846,4.966a127.284,127.284,0,0,1-15.319.9c-11.455,0-22.206-1.418-30.273-3.991-1.46-.466-2.8-.965-4.014-1.488Zm-2.687,11.682v5.724a22.4,22.4,0,0,0-4.062,2.525,4.134,4.134,0,0,1-1.01-2.528C614.295,1450.333,616.083,1448.336,619.367,1446.516Zm85.747,40.278v.161a4.234,4.234,0,0,1-.991,2.46,31.212,31.212,0,0,0-9.931-4.868v-5.9C700.994,1480.949,705.041,1483.951,705.115,1486.794Zm-10.922.583a28.668,28.668,0,0,1,7.955,3.9,29.763,29.763,0,0,1-7.955,3.816Zm-13.074,13.445c1.471-.213,2.948-.461,4.411-.742v6.445q-2.125.431-4.411.791Zm24-4.613c0,3.616-6.631,7.3-16.9,9.727v-6.267a1.279,1.279,0,0,0-.015-.146c7.041-1.584,13.453-3.989,16.913-7.242Z" transform="translate(-611.609 -1428.922)" fill="#5a5a5a"></path>
</g>
</g>
</svg>